TITLE ""
FILE "DISC2Track01.mp3" MP3
  TRACK 01 AUDIO
    TITLE "DISC2Track01_01"
    INDEX 01 00:00:00
  TRACK 02 AUDIO
    TITLE "DISC2Track01_02"
    INDEX 01 00:04:24
  TRACK 03 AUDIO
    TITLE "DISC2Track01_03"
    INDEX 01 00:04:47
  TRACK 04 AUDIO
    TITLE "DISC2Track01_04"
    INDEX 01 00:08:10
  TRACK 05 AUDIO
    TITLE "DISC2Track01_05"
    INDEX 01 00:10:71
  TRACK 06 AUDIO
    TITLE "DISC2Track01_06"
    INDEX 01 00:13:50
  TRACK 07 AUDIO
    TITLE "DISC2Track01_07"
    INDEX 01 00:14:01
  TRACK 08 AUDIO
    TITLE "DISC2Track01_08"
    INDEX 01 00:18:32
  TRACK 09 AUDIO
    TITLE "DISC2Track01_09"
    INDEX 01 00:21:40
  TRACK 10 AUDIO
    TITLE "DISC2Track01_10"
    INDEX 01 00:24:42
  TRACK 11 AUDIO
    TITLE "DISC2Track01_11"
    INDEX 01 00:24:66
  TRACK 12 AUDIO
    TITLE "DISC2Track01_12"
    INDEX 01 00:26:29
  TRACK 13 AUDIO
    TITLE "DISC2Track01_13"
    INDEX 01 00:28:24
  TRACK 14 AUDIO
    TITLE "DISC2Track01_14"
    INDEX 01 00:30:21
  TRACK 15 AUDIO
    TITLE "DISC2Track01_15"
    INDEX 01 00:30:45
  TRACK 16 AUDIO
    TITLE "DISC2Track01_16"
    INDEX 01 00:35:09
  TRACK 17 AUDIO
    TITLE "DISC2Track01_17"
    INDEX 01 00:38:60
  TRACK 18 AUDIO
    TITLE "DISC2Track01_18"
    INDEX 01 00:42:26
  TRACK 19 AUDIO
    TITLE "DISC2Track01_19"
    INDEX 01 00:42:50
  TRACK 20 AUDIO
    TITLE "DISC2Track01_20"
    INDEX 01 00:45:54
  TRACK 21 AUDIO
    TITLE "DISC2Track01_21"
    INDEX 01 00:48:52
  TRACK 22 AUDIO
    TITLE "DISC2Track01_22"
    INDEX 01 00:51:41
  TRACK 23 AUDIO
    TITLE "DISC2Track01_23"
    INDEX 01 00:51:64
  TRACK 24 AUDIO
    TITLE "DISC2Track01_24"
    INDEX 01 00:53:57
  TRACK 25 AUDIO
    TITLE "DISC2Track01_25"
    INDEX 01 00:55:43
  TRACK 26 AUDIO
    TITLE "DISC2Track01_26"
    INDEX 01 00:57:24
  TRACK 27 AUDIO
    TITLE "DISC2Track01_27"
    INDEX 01 00:57:47
  TRACK 28 AUDIO
    TITLE "DISC2Track01_28"
    INDEX 01 01:01:47
  TRACK 29 AUDIO
    TITLE "DISC2Track01_29"
    INDEX 01 01:05:10
  TRACK 30 AUDIO
    TITLE "DISC2Track01_30"
    INDEX 01 01:08:39
  TRACK 31 AUDIO
    TITLE "DISC2Track01_31"
    INDEX 01 01:08:63
  TRACK 32 AUDIO
    TITLE "DISC2Track01_32"
    INDEX 01 01:11:67
  TRACK 33 AUDIO
    TITLE "DISC2Track01_33"
    INDEX 01 01:14:73
  TRACK 34 AUDIO
    TITLE "DISC2Track01_34"
    INDEX 01 01:17:74
  TRACK 35 AUDIO
    TITLE "DISC2Track01_35"
    INDEX 01 01:18:20
  TRACK 36 AUDIO
    TITLE "DISC2Track01_36"
    INDEX 01 01:22:16
  TRACK 37 AUDIO
    TITLE "DISC2Track01_37"
    INDEX 01 01:25:28
  TRACK 38 AUDIO
    TITLE "DISC2Track01_38"
    INDEX 01 01:28:34
  TRACK 39 AUDIO
    TITLE "DISC2Track01_39"
    INDEX 01 01:28:54
  TRACK 40 AUDIO
    TITLE "DISC2Track01_40"
    INDEX 01 01:33:26
  TRACK 41 AUDIO
    TITLE "DISC2Track01_41"
    INDEX 01 01:37:08
  TRACK 42 AUDIO
    TITLE "DISC2Track01_42"
    INDEX 01 01:40:65
  TRACK 43 AUDIO
    TITLE "DISC2Track01_43"
    INDEX 01 01:41:15
  TRACK 44 AUDIO
    TITLE "DISC2Track01_44"
    INDEX 01 01:44:45
  TRACK 45 AUDIO
    TITLE "DISC2Track01_45"
    INDEX 01 01:47:73
  TRACK 46 AUDIO
    TITLE "DISC2Track01_46"
    INDEX 01 01:51:18
  TRACK 47 AUDIO
    TITLE "DISC2Track01_47"
    INDEX 01 01:51:43
  TRACK 48 AUDIO
    TITLE "DISC2Track01_48"
    INDEX 01 01:54:63
  TRACK 49 AUDIO
    TITLE "DISC2Track01_49"
    INDEX 01 01:58:06
  TRACK 50 AUDIO
    TITLE "DISC2Track01_50"
    INDEX 01 02:01:20
